HIERARCHY
ROOT root
{
	OFFSET	0	13.1	24.9
	CHANNELS 6  Xposition Yposition Zposition Xrotation Yrotation Zrotation
	JOINT spine_1
	{
		OFFSET	0	9.99999	0
		CHANNELS 3  Xrotation Yrotation Zrotation
		JOINT spine_2
		{
			OFFSET	0	112	-10
			CHANNELS 3  Xrotation Yrotation Zrotation
			JOINT spine_3
			{
				OFFSET	0	206.5	19.3
				CHANNELS 3  Xrotation Yrotation Zrotation
				JOINT spine_4
				{
					OFFSET	0	110.4	14.6
					CHANNELS 3  Xrotation Yrotation Zrotation
					JOINT neck_1
					{
						OFFSET	0	71.8	-50.3
						CHANNELS 3  Xrotation Yrotation Zrotation
						JOINT neck_2
						{
							OFFSET	0	86.2	-25.8
							CHANNELS 3  Xrotation Yrotation Zrotation
							JOINT head_ee
							{
								OFFSET	0	179.8	-8.7
								CHANNELS 3  Xrotation Yrotation Zrotation
								End Site
								{
									OFFSET	1	0	0
								}
							}
						}
					}
					JOINT left_clavicle
					{
						OFFSET	-43.2	22.4	-70.8
						CHANNELS 3  Xrotation Yrotation Zrotation
						JOINT left_shoulder
						{
							OFFSET	-93.9	-5.79999	48.7
							CHANNELS 3  Xrotation Yrotation Zrotation
							JOINT left_elbow
							{
								OFFSET	-291.4	-30.8	15.2
								CHANNELS 3  Xrotation Yrotation Zrotation
								JOINT left_lowarm_twist
								{
									OFFSET	-110.7	-3.89999	13.6
									CHANNELS 3  Xrotation Yrotation Zrotation
									JOINT left_hand
									{
										OFFSET	-110.7	-3.89999	13.6
										CHANNELS 3  Xrotation Yrotation Zrotation
										JOINT left_ee
										{
											OFFSET	-80.8	-5.10001	12.1
											CHANNELS 3  Xrotation Yrotation Zrotation
											End Site
											{
												OFFSET	1	0	0
											}
										}
									}
								}
							}
						}
					}
					JOINT right_clavicle
					{
						OFFSET	43.2	22.4	-70.8
						CHANNELS 3  Xrotation Yrotation Zrotation
						JOINT right_shoulder
						{
							OFFSET	93.9	-5.79999	48.7
							CHANNELS 3  Xrotation Yrotation Zrotation
							JOINT right_elbow
							{
								OFFSET	291.4	-30.8	15.2
								CHANNELS 3  Xrotation Yrotation Zrotation
								JOINT right_lowarm_twist
								{
									OFFSET	110.7	-3.89999	13.6
									CHANNELS 3  Xrotation Yrotation Zrotation
									JOINT right_hand
									{
										OFFSET	110.7	-3.89999	13.6
										CHANNELS 3  Xrotation Yrotation Zrotation
										JOINT right_ee
										{
											OFFSET	80.8	-5.10001	12.1
											CHANNELS 3  Xrotation Yrotation Zrotation
											End Site
											{
												OFFSET	1	0	0
											}
										}
									}
								}
							}
						}
					}
				}
			}
		}
	}
	JOINT left_hip
	{
		OFFSET	-82.8	-127.5	0.300001
		CHANNELS 3  Xrotation Yrotation Zrotation
		JOINT left_knee
		{
			OFFSET	-28.2	-396.7	2.2
			CHANNELS 3  Xrotation Yrotation Zrotation
			JOINT left_ankle
			{
				OFFSET	-11.7	-411.3	35.4
				CHANNELS 3  Xrotation Yrotation Zrotation
				JOINT left_toes
				{
					OFFSET	0	-60	-88.6
					CHANNELS 3  Xrotation Yrotation Zrotation
					JOINT left_foot_ee
					{
						OFFSET	-22.5	-16.5	-42.2
						CHANNELS 3  Xrotation Yrotation Zrotation
						End Site
						{
							OFFSET	1	0	0
						}
					}
				}
			}
		}
	}
	JOINT right_hip
	{
		OFFSET	82.8	-127.5	0.300001
		CHANNELS 3  Xrotation Yrotation Zrotation
		JOINT right_knee
		{
			OFFSET	28.2	-396.7	2.2
			CHANNELS 3  Xrotation Yrotation Zrotation
			JOINT right_ankle
			{
				OFFSET	11.7	-411.3	35.4
				CHANNELS 3  Xrotation Yrotation Zrotation
				JOINT right_toes
				{
					OFFSET	0	-60	-88.6
					CHANNELS 3  Xrotation Yrotation Zrotation
					JOINT right_foot_ee
					{
						OFFSET	22.5	-16.5	-42.2
						CHANNELS 3  Xrotation Yrotation Zrotation
						End Site
						{
							OFFSET	1	0	0
						}
					}
				}
			}
		}
	}
}
MOTION
Frames: 9
Frame Time: 0.02
927.971 735.513 -1580.72 7.38474 87.5445 -9.05466 0.147208 0.123534 2.33634 0.150244 -0.0253428 2.33947 0.150419 -0.510763 2.2832 0.143173 -0.143866 2.33518 -18.3274 14.5476 -15.3734 -19.5142 36.1444 -8.25884 -0.0 0.0 -0.0 -3.77778 23.4218 -2.4763 -12.3991 -22.1774 60.674 0.597705 -16.4934 0.0866288 13.8979 0.278749 -1.74912 3.6354 -5.58814 22.737 -0.0 0.0 -0.0 10.1633 2.89395 -20.1148 -3.13475 24.1613 -60.0331 1.68632 39.8705 -0.611651 45.5818 0.670969 5.63269 4.27556 -19.3227 -36.1119 0.0 0.0 0.0 12.7866 -6.19614 -3.1014 -20.5303 0.288957 3.12045 29.8182 16.0544 -3.9267 -26.6785 0.0 0.0 -0.0 0.0 -0.0 3.26292 0.502652 -6.68277 2.63692 0.117535 0.387513 19.5364 10.943 2.8118 -31.1342 0.0 0.0 0.0 0.0 0.0 
921.616 735.984 -1582.18 -3.81983 88.1168 2.09374 0.279623 0.08057 2.19405 0.282299 -0.059172 2.19473 0.280974 -0.508912 2.13576 0.274646 -0.165307 2.1893 -18.4692 14.8793 -14.697 -19.7806 36.3829 -7.39279 -0.0 0.0 -0.0 -3.97698 23.1578 -2.81197 -12.22 -22.3727 61.3517 0.656099 -18.0049 0.103945 14.0253 0.279329 -1.76537 3.62821 -5.50649 22.7207 -0.0 0.0 -0.0 10.1614 2.63962 -20.1023 -3.8742 23.8858 -60.0729 1.67874 39.7436 -0.606798 45.5175 0.666913 5.62553 4.19458 -19.1629 -35.4563 0.0 0.0 0.0 13.5918 -6.04183 -2.68359 -19.1106 0.305161 2.90323 29.0157 16.2613 -3.84015 -27.1133 0.0 0.0 -0.0 0.0 -0.0 3.14877 0.466008 -6.67804 2.92767 0.131586 0.429906 19.3634 10.8708 2.78818 -31.5901 0.0 0.0 0.0 0.0 0.0 
916.41 735.377 -1581.96 -23.5808 88.0135 21.6589 0.34626 0.0827012 2.22871 0.349021 -0.0592494 2.22946 0.347643 -0.513606 2.17033 0.341107 -0.164487 2.22417 -18.5666 14.7755 -14.9891 -19.8592 36.3191 -7.69058 -0.0 0.0 -0.0 -4.09265 23.0103 -3.00716 -11.8524 -22.4835 61.7812 0.685389 -18.7535 0.113181 14.0415 0.2794 -1.76745 3.62812 -5.48026 22.7316 -0.0 0.0 -0.0 10.1506 2.49279 -20.0744 -4.28606 23.5287 -59.834 1.69771 40.0603 -0.618966 45.5318 0.667818 5.62713 4.23793 -18.8619 -35.7249 0.0 0.0 0.0 14.4769 -6.0033 -2.30333 -17.8373 0.315111 2.70812 29.1786 16.3425 -3.85928 -27.1601 0.0 0.0 -0.0 0.0 -0.0 3.04257 0.42036 -6.4832 3.08599 0.139327 0.452962 19.0816 10.8023 2.75042 -31.943 0.0 0.0 0.0 0.0 0.0 
911.983 735.232 -1583.68 -42.5564 87.9195 40.4893 0.566776 0.0127733 2.26704 0.569625 -0.131473 2.26326 0.565162 -0.582954 2.19088 0.558537 -0.229722 2.25541 -17.0845 14.151 -15.1158 -17.9995 35.5218 -8.64236 -0.0 0.0 -0.0 -4.05613 22.2082 -3.14042 -10.3544 -22.8816 62.7551 0.749128 -20.3597 0.134519 14.5491 0.281332 -1.83225 3.55749 -4.63022 22.5893 -0.0 0.0 -0.0 10.2714 2.22435 -20.3189 -4.50372 23.2419 -60.2869 1.71703 40.3799 -0.631444 45.5499 0.668958 5.62914 3.88494 -17.0989 -32.6449 0.0 0.0 0.0 15.2973 -6.32916 -2.09631 -16.7071 0.320309 2.53479 25.2463 16.6168 -3.41064 -27.2046 0.0 0.0 -0.0 0.0 -0.0 4.01286 0.479133 -6.07484 3.35356 0.152556 0.491877 18.0753 10.7542 2.61761 -33.6545 0.0 0.0 0.0 0.0 0.0 
902.185 740.583 -1585.02 -49.9373 88.469 47.8027 0.544165 0.292314 2.23065 0.546921 0.149816 2.24472 0.55379 -0.303901 2.2291 0.54686 0.0518658 2.24911 -17.2908 16.1893 -14.7377 -18.7079 39.1415 -7.19534 -0.0 0.0 -0.0 -4.19873 21.8389 -3.4295 -9.36948 -23.2988 63.3322 0.856372 -22.9875 0.174137 15.3405 0.283199 -1.93331 3.55614 -4.29188 22.7266 -0.0 0.0 -0.0 10.284 2.06856 -20.3392 -6.55075 22.5517 -60.5272 1.63898 39.0702 -0.581557 44.7781 0.620831 5.54288 3.36959 -16.1254 -28.6298 0.0 0.0 0.0 14.9636 -7.80878 -1.70447 -16.5377 0.320794 2.5088 19.0966 15.9948 -2.64913 -30.9219 0.0 0.0 -0.0 0.0 -0.0 4.36044 0.4567 -6.06145 1.31626 0.0564358 0.194094 18.539 7.90797 2.63948 -34.906 0.0 0.0 0.0 0.0 0.0 
897.4 742.109 -1584.89 -100.274 88.0014 98.2742 0.579376 0.378249 2.18032 0.581989 0.238778 2.19995 0.592171 -0.206216 2.20324 0.585426 0.144246 2.20816 -15.2726 14.2802 -14.043 -15.9665 35.5018 -8.19747 -0.0 0.0 -0.0 -3.98396 21.2354 -3.25855 -8.31137 -23.4778 63.7618 0.855878 -22.9756 0.173944 15.135 0.282848 -1.90707 3.52965 -4.03683 22.6435 -0.0 0.0 -0.0 10.2573 1.88252 -20.2757 -7.21041 22.2527 -60.5087 1.56967 37.8648 -0.538441 44.931 0.630273 5.56002 3.30489 -15.1749 -27.9058 0.0 0.0 0.0 16.0818 -6.98136 -1.36946 -15.5957 0.322086 2.36429 17.8068 17.4015 -2.4937 -28.7449 0.0 0.0 -0.0 0.0 -0.0 4.7475 0.614194 -6.10438 1.79641 0.0781328 0.264574 18.7872 9.13929 2.68778 -35.7001 0.0 0.0 0.0 0.0 0.0 
890.498 742.494 -1587.37 -98.4561 87.6251 96.0818 0.646358 0.488601 2.16086 0.648888 0.350144 2.18755 0.663302 -0.0917872 2.21348 0.656558 0.258857 2.20022 -15.3198 14.3773 -14.0432 -16.0372 35.6778 -8.13917 -0.0 0.0 -0.0 -3.99644 20.93 -3.34585 -7.97483 -23.7178 64.1356 0.896114 -23.9365 0.18996 15.3181 0.283165 -1.93045 3.55151 -3.85807 22.8803 -0.0 0.0 -0.0 10.3733 1.69992 -20.5119 -7.67134 22.0179 -60.7617 1.53037 37.1632 -0.514507 44.9149 0.629279 5.55822 3.13336 -14.9225 -26.6155 0.0 0.0 0.0 16.0906 -7.30092 -1.17401 -15.5311 0.322087 2.35438 15.526 17.5666 -2.19517 -28.7778 0.0 0.0 -0.0 0.0 -0.0 4.82938 0.665915 -5.92489 1.02057 0.0433687 0.150603 18.9568 8.96867 2.70744 -36.598 0.0 0.0 0.0 0.0 0.0 
880.656 743.273 -1588.28 -119.38 87.7945 117.245 0.650269 0.451771 2.1415 0.652765 0.31462 2.16589 0.665655 -0.122229 2.18519 0.659062 0.224332 2.17709 -15.0396 14.6145 -13.8937 -15.7549 36.0873 -7.99753 -0.0 0.0 -0.0 -3.91051 20.4229 -3.33396 -6.73485 -23.4764 64.288 0.990857 -26.1432 0.230067 16.102 0.283678 -2.03057 3.57763 -3.85538 23.0725 -0.0 0.0 -0.0 10.3026 1.7655 -20.366 -9.53551 21.4788 -61.0622 1.55795 37.6569 -0.531261 44.9743 0.632956 5.56487 3.02001 -14.5916 -25.7217 0.0 0.0 0.0 15.6623 -7.56299 -1.2613 -16.6787 0.320396 2.53043 13.8147 17.8793 -1.96771 -29.0801 0.0 0.0 -0.0 0.0 -0.0 4.46773 0.689533 -6.15587 -2.92573 -0.109357 -0.435639 19.2249 6.84325 2.7149 -36.74 0.0 0.0 0.0 0.0 0.0 
869.708 742.618 -1590.12 -149.015 87.1235 146.921 0.624249 0.373157 2.13833 0.626762 0.236365 2.15773 0.636609 -0.198451 2.16155 0.630118 0.145333 2.16577 -15.8915 15.1963 -14.6369 -16.8276 37.4721 -8.13683 -0.0 0.0 -0.0 -4.15248 20.2964 -3.71989 -6.23649 -24.3693 64.3251 1.14295 -29.5169 0.301104 16.7242 0.283109 -2.11003 3.59843 -3.80981 23.2446 -0.0 0.0 -0.0 10.3676 1.52118 -20.4919 -11.6588 20.8347 -61.3796 1.56958 37.8632 -0.538383 44.9204 0.629616 5.55883 2.93164 -14.7548 -25.1515 0.0 0.0 0.0 14.9108 -8.00342 -1.33597 -17.323 0.317901 2.62926 12.8432 16.231 -1.82708 -29.2767 0.0 0.0 -0.0 0.0 -0.0 4.16155 0.462441 -6.11599 -5.29433 -0.181492 -0.791965 20.85 4.48815 2.89373 -36.9121 0.0 0.0 0.0 0.0 0.0 
